<?xml version="1.0" encoding="utf-8" ?>
<svg xmlns="http://www.w3.org/2000/svg" xmlns:xlink="http://www.w3.org/1999/xlink" width="1024" height="1024">
	<path fill="#FEFEFE" d="M656.137 424.609C657.654 425.81 659.122 426.942 660.792 427.923L659.786 429.155C658.535 429.153 657.694 429.22 656.554 428.634C655.958 427.323 656.105 426.013 656.137 424.609Z"/>
	<path fill="#FEFEFE" d="M623.215 142.516C624.444 142.864 625.481 143.018 626.283 144.102C626.126 145.567 624.96 146.459 623.989 147.472C622.565 147.318 621.704 147.414 620.542 146.546L620.391 145.428C621.263 144.101 621.922 143.438 623.215 142.516Z"/>
	<path fill="#FEFEFE" d="M410.385 488.362L412.076 488.105C412.023 491.83 411.583 495.862 411.884 499.56C412.246 504.003 414.818 507.258 414.152 512.062C411.1 504.922 410.328 496.055 410.385 488.362Z"/>
	<path fill="#FEFEFE" d="M555.054 526.221C555.438 528.421 555.67 530.541 555.764 532.772C557.481 532.258 559.178 531.749 560.924 531.342C562.153 531.055 562.934 530.58 563.977 529.882C564.351 529.015 564.503 528.318 564.61 527.381C565.273 529.691 564.734 531.223 564.022 533.448C560.904 533.953 557.836 534.104 554.936 535.455L555.054 526.221Z"/>
	<path fill="#FEFEFE" d="M390.557 648.509C390.875 648.628 391.195 648.742 391.511 648.866C393.945 649.82 395.891 651.75 398.368 652.563C401.459 653.577 405.273 653.151 408.17 654.437C405.055 656.042 402.193 656.425 398.79 655.409C395.17 654.329 392.298 651.823 390.557 648.509Z"/>
	<path fill="#FEFEFE" d="M670.776 417.762C671.769 418.829 671.898 420.286 671.807 421.752C671.721 423.129 671.094 424.378 670.802 425.696C670.588 426.661 671.081 427.776 671.383 428.688L669.225 427.116L668.585 427.281L668.57 428.019C669.613 428.807 670.645 429.505 671.763 430.184L671.819 430.657C670.21 430.909 669.448 429.557 668.01 429.159C666.243 428.67 662.713 431.244 659.351 430.432C659.472 430.106 659.769 429.492 659.786 429.155L660.792 427.923C663.042 428.011 665.368 427.837 667.257 426.466C670.002 424.473 670.38 420.853 670.776 417.762Z"/>
	<path fill="#FEFEFE" d="M532.771 455.735C533.826 464.289 533.643 474.624 532.836 483.194C532.516 486.596 531.238 489.738 531.319 493.168L531.022 490.882L531.208 471.866C533.707 468.569 529.579 459.543 532.771 455.735Z"/>
	<path fill="#FEFEFE" d="M293.035 380.988C296.052 385.826 299.63 389.821 305.393 391.301C309.844 392.444 314.406 391.523 318.271 389.111C321.039 387.384 322.881 385.158 324.799 382.593C325.11 383.744 324.896 384.643 324.391 385.698C322.833 388.96 318.889 390.845 315.601 391.845C313.564 392.464 303.921 393.182 302.341 391.691C301.568 390.961 301.995 390.574 300.788 389.946L300.422 390.335L301.311 391.478L300.004 391.965C298.258 391.783 296.9 391.641 295.679 390.199C293.915 388.115 292.928 383.686 293.035 380.988Z"/>
	<path fill="#FEFEFE" d="M374.223 647.423C373.692 644.255 373.727 640.56 374.34 637.405C376.123 628.211 381.605 621.112 389.317 616.042C388.022 619.055 383.629 621.444 383.788 624.718C384.348 625.843 384.508 625.692 384.204 627.004C382.989 627.126 382.441 626.329 381.499 625.61C381.149 626.067 380.826 626.544 380.506 627.022C379.746 628.161 378.635 628.957 377.571 629.794L378.9 631.314C375.894 636.525 375.09 640.719 375.73 646.794L374.539 646.826L374.223 647.423Z"/>
	<path fill="#FEFEFE" d="M472.479 394.719C468.588 379.545 472.925 363.648 471.402 348.243C470.959 343.762 470.294 339.091 473.362 335.408L474.527 335.38C473.528 336.66 472.649 337.533 472.591 339.233C472.35 357.719 472.886 376.241 472.479 394.719Z"/>
	<path fill="#FEFEFE" d="M419.931 693.605C419.192 693.106 418.399 692.15 417.988 691.343C417.097 689.593 417.088 687.72 417.73 685.884C418.193 684.56 419.089 683.72 420.366 683.16C427.645 679.971 440.905 687.333 447.551 690.172L446.725 690.115C442.877 689.829 440.144 688.718 436.678 687.109C436.189 686.882 432.339 684.846 432.065 684.901C431.817 684.951 431.648 685.188 431.434 685.324C430.697 685.789 430.115 686.019 429.293 686.266L428.458 686.011L429.463 684.221L430.291 684.161L429.417 683.876L429.504 683.65C428.482 684.057 427.501 684.495 426.515 684.982C424.326 684.789 422.416 684.315 420.46 685.429C419.121 687.724 419.82 689.525 420.451 691.928C421.022 691.425 421.298 691.035 421.707 690.407L422.063 691.232C421.435 692.214 420.815 692.848 419.931 693.605Z"/>
	<path fill="#FEFEFE" d="M554.99 514.586C555.789 518.025 555.465 521.906 555.797 525.433C558.688 524.876 561.853 524.532 564.561 523.36L564.708 527.012L564.61 527.381C564.503 528.318 564.351 529.015 563.977 529.882C562.934 530.58 562.153 531.055 560.924 531.342C559.178 531.749 557.481 532.258 555.764 532.772C555.67 530.541 555.438 528.421 555.054 526.221C554.927 522.596 554.272 518.105 554.99 514.586Z"/>
	<path fill="#FEFEFE" d="M505.444 374.928C505.78 379.24 505.661 383.564 505.611 387.885C511.517 384.273 519.74 382.695 526.518 381.727L526.557 385.769C519.381 385.754 511.523 388.311 504.767 390.513C504.875 385.328 504.819 380.081 505.444 374.928Z"/>
	<path fill="#FEFEFE" d="M564.083 481.308C564.051 480.33 564.132 479.486 564.299 478.522C565.604 477.614 567.126 477.956 568.693 477.953L567.053 479.938C565.461 481.608 566.108 498.084 566.186 501.328C566.339 507.693 566.374 521.11 564.708 527.012L564.561 523.36C563.94 509.406 565.196 495.216 564.083 481.308Z"/>
	<path fill="#FEFEFE" d="M597.161 261.388C596.945 261.463 596.734 261.55 596.515 261.612C594.253 262.256 565.467 253.969 562.698 252.131C559.764 250.183 555.617 251.765 552.236 251.293C550.581 251.061 549.747 250.186 548.284 249.672C546.791 249.148 543.892 249.175 542.656 248.26C542.402 248.072 542.277 247.755 542.087 247.503L542.662 246.942C546.002 248.657 557.751 249.824 562.347 250.826C573.878 253.341 586.387 256.599 597.161 261.388Z"/>
	<path fill="#FEFEFE" d="M410.385 488.362C409.211 469.783 416.117 444.271 427.724 429.51C427.935 433.54 419.849 443.412 420.027 445.231C420.079 445.764 420.741 446.122 420.766 446.657C420.809 447.566 416.581 454.015 416.05 455.79C413.718 463.59 411.84 479.944 412.076 488.105L410.385 488.362Z"/>
	<path fill="#FEFEFE" d="M441.529 560.1C448.137 566.578 455.914 572.012 462.295 578.583C456.608 577.333 447.118 575.388 442.882 570.883C443.915 570.134 443.487 570.597 444.155 569.482C443.659 567.448 441.805 566.443 440.942 564.595C442.039 564.167 442.521 564.547 443.629 564.844C444.843 565.711 446.148 566.323 447.484 566.974C445.356 564.802 443.085 562.732 441.529 560.1Z"/>
	<path fill="#FEFEFE" d="M505.422 470.483L524.519 470.491C524.325 476 524.103 481.509 524.01 487.02C523.979 488.846 524.057 490.7 523.718 492.497C522.826 485.713 523.175 478.873 522.865 472.051C520.053 472.124 517.22 472.124 514.417 472.37C514.066 473.231 513.23 475.95 512.519 476.313C512.293 475.085 512.223 473.539 511.543 472.492C511.088 473.175 510.881 473.595 510.613 474.346L510.088 474.291L509.666 472.577C508.616 473.052 508.184 473.487 507.729 474.578C506.657 477.148 506.323 501.205 506.201 505.746C506.123 508.629 506.486 512.388 505.544 515.1C504.54 504.551 505.688 493.387 505.417 482.745C505.44 478.658 505.484 474.57 505.422 470.483Z"/>
	<path fill="#FEFEFE" d="M530.964 431.964L555.7 432.014C555.329 441.109 555.445 450.238 555.423 459.34C554.793 467.771 555.363 476.257 554.893 484.687C554.019 475.127 553.857 465.285 554.06 455.692C554.215 448.382 555.831 440.515 554.074 433.323L553.18 432.796C547.223 432.406 538.47 432.402 533.256 435.304C532.988 442.064 532.435 448.979 532.771 455.735C529.579 459.543 533.707 468.569 531.208 471.866L530.964 431.964Z"/>
	<path fill="#FEFEFE" d="M439.602 704.683C441.8 705.423 444.091 706.083 446.22 706.998C447.438 707.521 448.227 707.765 449.53 707.906C446.094 710.353 440.796 716.295 440.28 720.786C440.219 721.309 440.306 721.371 440.478 721.867C437.74 721.17 434.919 719.511 432.353 718.287C434.575 713.671 437.353 709.315 439.602 704.683Z"/>
	<path fill="#FEFEFE" d="M543.013 263.124C545.889 263.67 548.747 264.373 551.603 265.018C551.614 265.247 551.623 265.476 551.636 265.705C551.818 268.761 555.018 277.246 552.705 279.181C552.455 279.391 552.158 279.539 551.884 279.718C548.82 279.26 545.76 278.627 542.708 278.081C542.945 273.102 542.95 268.109 543.013 263.124Z"/>
	<path fill="#FEFEFE" d="M331.621 422.646C331.838 423.55 332.057 424.372 331.828 425.3C330.496 430.694 324.522 441.55 322.083 446.912C319.803 451.923 317.53 466.236 315.416 469.249C313.59 471.85 309.49 473.083 307.457 475.71C306.315 477.186 290.358 488.003 288.867 488.092C288.692 488.103 288.518 488.072 288.344 488.062C287.886 486.846 287.984 487.113 288.365 486.015C288.46 486.883 288.298 486.904 288.978 487.533C297.091 480.422 305.599 473.026 314.71 467.237C316.169 463.042 317.045 458.57 318.294 454.298C321.503 443.325 325.705 432.447 331.621 422.646Z"/>
	<path fill="#FEFEFE" d="M469.528 563.156C488.605 575.267 508.514 582.067 531.235 577.087C541.92 574.744 551.509 570.483 560.337 564.037L561.159 565.36C559.195 568.641 546.732 574.178 542.737 575.464C540.216 576.276 537.403 576.483 534.987 577.509C535.369 577.844 535.745 578.186 536.119 578.531C535.062 579.017 505.145 581.127 502.838 580.551C503.401 580.07 503.655 580.05 503.798 579.298C500.419 578.721 497.073 577.888 493.77 576.98C487.402 575.23 472.81 568.975 469.528 563.156Z"/>
	<path fill="#FEFEFE" d="M554.893 484.687C555.363 476.257 554.793 467.771 555.423 459.34C556.417 476.424 555.328 493.812 555.816 510.965C558.435 511.326 561.121 510.678 563.758 510.589C563.816 501.042 563.112 490.764 564.083 481.308C565.196 495.216 563.94 509.406 564.561 523.36C561.853 524.532 558.688 524.876 555.797 525.433C555.465 521.906 555.789 518.025 554.99 514.586C554.585 504.637 555.005 494.647 554.893 484.687Z"/>
	<path fill="#FEFEFE" d="M558.804 375.982C558.799 373.924 558.35 369.806 559.403 368.146C559.87 374.426 558.884 380.753 559.121 387.062C553.449 386.279 547.737 385.329 542.026 384.911C541.945 379.978 541.445 374.513 542.068 369.645C543.122 370.759 542.691 373.932 542.675 375.403C548.069 375.787 553.396 375.979 558.804 375.982Z"/>
	<path fill="#FEFEFE" d="M676.257 437.96C677.518 437.93 678.638 438.035 679.858 438.385C681.928 438.98 683.841 440.41 684.797 442.368C685.69 444.198 685.669 446.314 684.984 448.207C683.976 450.992 681.927 452.313 679.382 453.562C678.382 453.619 677.316 453.686 676.329 453.475C674.519 453.088 672.523 451.62 671.503 450.085C670.263 448.219 670.143 445.961 670.674 443.83C671.45 440.72 673.62 439.443 676.257 437.96Z"/>
	<path fill="#FEFEFE" d="M692.438 534.407C693.091 534.488 693.724 534.611 694.36 534.776C697.052 535.474 699.39 536.84 700.725 539.368C701.742 541.294 701.89 543.42 701.087 545.454C700.048 548.087 697.946 549.366 695.506 550.533C694.577 550.57 693.693 550.575 692.768 550.451C690.848 550.194 688.713 548.73 687.593 547.178C686.292 545.376 686.123 543.12 686.617 541.006C687.392 537.69 689.674 536.093 692.438 534.407Z"/>
	<path fill="#FEFEFE" d="M640.638 387.474C641.73 387.382 642.665 387.316 643.759 387.486C645.839 387.809 648.134 389.359 649.31 391.087C650.568 392.936 650.929 395.272 650.397 397.435C649.66 400.431 647.65 401.967 645.177 403.57C644.083 403.626 642.976 403.692 641.884 403.567C639.739 403.323 637.548 401.996 636.29 400.243C635.051 398.517 634.771 396.574 635.115 394.508C635.682 391.097 637.988 389.393 640.638 387.474Z"/>
	<path fill="#FEFEFE" d="M656.137 424.609C654.967 422.547 654.318 420.805 654.717 418.4C655.052 416.379 656.116 414.62 657.804 413.453C659.827 412.054 662.205 411.701 664.587 412.257C667.621 412.967 669.162 415.311 670.776 417.762C670.38 420.853 670.002 424.473 667.257 426.466C665.368 427.837 663.042 428.011 660.792 427.923C659.122 426.942 657.654 425.81 656.137 424.609Z"/>
	<path fill="#FEFEFE" d="M617.336 364.979C618.214 364.994 618.99 365.02 619.835 365.282C622.192 366.013 624.451 367.472 625.577 369.73C626.604 371.789 626.571 374.234 625.76 376.359C624.64 379.293 622.559 380.359 619.808 381.536C618.871 381.543 618.003 381.468 617.093 381.244C614.855 380.693 612.656 379.281 611.518 377.232C610.386 375.192 610.454 372.768 611.211 370.615C612.276 367.585 614.647 366.365 617.336 364.979Z"/>
	<path fill="#FEFEFE" d="M671.644 587.526C675.484 588.625 680.547 590.184 683.706 592.632C684.954 593.599 686.103 594.946 686.183 596.599C686.315 599.343 683.949 601.347 682.119 603.009C681.363 603.393 680.633 603.723 679.823 603.979C677.762 604.632 675.722 604.3 673.843 603.288C671.551 602.053 670.045 599.639 669.448 597.157C668.579 593.542 669.799 590.606 671.644 587.526Z"/>
	<path fill="#FEFEFE" d="M590.289 348.426C591.562 348.419 592.691 348.475 593.907 348.896C596.111 349.659 598.059 351.267 599.035 353.405C599.873 355.239 599.95 357.412 599.243 359.301C598.203 362.078 596.132 363.427 593.563 364.645C592.021 364.678 590.471 364.744 589.004 364.192C586.882 363.392 584.987 361.81 584.06 359.714C583.135 357.621 583.176 355.436 584.08 353.34C585.271 350.579 587.638 349.464 590.289 348.426Z"/>
	<path fill="#FEFEFE" d="M632.112 418.419C634.122 419.433 636.745 423.208 637.869 425.064C639.207 427.272 641.608 431.85 640.507 434.532C639.624 436.683 634.745 438.515 632.735 439.526C629.68 438.654 625.196 429.613 623.451 426.729C626.406 424.017 629.301 421.28 632.112 418.419Z"/>
	<path fill="#FEFEFE" d="M661.85 489.116C664.055 494.63 664.519 501.625 665.18 507.502C661.32 507.647 657.465 507.929 653.611 508.186C651.126 504.818 651.033 495.748 650.601 491.567C654.408 490.9 658.114 490.109 661.85 489.116Z"/>
	<path fill="#FEFEFE" d="M657.239 693.991C661.991 692.239 667.048 686.723 670.888 683.339C697.235 660.125 712.728 638.024 727.579 606.456C728.308 608.654 727.613 610.01 726.877 612.12C726.79 612.368 726.714 612.621 726.626 612.869C725.616 615.723 723.646 618.271 721.957 620.758C722.172 620.882 722.391 620.998 722.601 621.129C722.803 621.254 722.995 621.393 723.191 621.525C722.964 622.602 723.132 622.496 722.241 623.306C721.775 623.73 721.221 624.176 720.79 624.625C719.177 626.306 712.288 639.07 710.4 642.018C706.44 648.202 701.009 653.147 697.035 659.191C695.919 660.889 696.031 663.804 694.511 665.005L693.005 664.369C690.302 665.645 689.21 669.906 687.269 672.106C686.137 673.39 685.14 672.353 683.831 673.413C682.37 674.596 681.286 676.396 679.877 677.707C676.907 680.47 673.597 682.858 670.628 685.609C670.651 686.342 670.706 686.947 670.823 687.661L669.235 688.852L668.915 688.631L669.763 686.553C665.673 688.2 664.17 693.73 659.556 694.722C659.273 694.782 659.001 694.885 658.722 694.96C657.806 695.206 658.194 695.176 657.318 695.05L657.239 693.991Z"/>
	<path fill="#FEFEFE" d="M608.931 394.528C612.368 395.222 616.628 397.675 618.806 400.444C620.196 402.211 620.977 404.229 620.642 406.495C620.136 409.909 617.367 411.832 614.816 413.769L613.518 414.14C609.589 412.936 605.828 407.68 603.328 404.542C604.752 401.08 606.625 397.488 608.931 394.528Z"/>
	<path fill="#FEFEFE" d="M476.489 435.145L496.997 435.029C496.258 453.513 496.737 472.06 496.527 490.558C496.567 498.023 497.079 505.826 496.451 513.248C495.65 509.597 496.026 505.311 495.804 501.547C494.828 484.995 495.362 468.507 495.47 451.935C495.501 447.254 495.972 442.67 495.839 437.964C491.246 437.775 479.61 435.702 476.014 439.096C474.375 440.644 473.926 442.477 473.313 444.553C473.009 445.579 472.998 446.736 472.055 447.282L471.627 446.197L471.143 446.101C470.664 446.877 470.827 446.506 470.564 447.329C469.874 449.485 468.973 450.872 467.818 452.75C467.231 453.705 467.15 454.11 467.45 455.197C467.5 455.379 467.563 455.558 467.62 455.738C466.162 456.366 465.239 456.642 464.553 458.18C462.215 463.423 457.837 473.985 460.018 479.541L459.6 480.093C458.835 479.854 458.441 479.768 457.617 479.769C457.633 481.611 457.711 483.342 457.106 485.102C456.694 486.303 456.339 487.522 455.961 488.734C457.791 467.393 464.9 452.665 476.489 435.145Z"/>
	<path fill="#FEFEFE" d="M524.745 225.361C527.101 228.867 527.466 232.55 527.783 236.656C528.51 246.058 528.053 255.779 528.056 265.223L528.049 317.202C528.042 337.173 528.758 357.421 527.576 377.344C527.412 380.098 527.759 383.164 527.437 385.824L526.557 385.769L526.518 381.727L526.491 279.583C526.473 269.975 526.413 260.36 526.528 250.753C526.598 244.95 527.156 238.957 526.643 233.178C526.409 230.541 525.49 227.892 524.745 225.361Z"/>
	<path fill="#FEFEFE" d="M582.765 375.504C585.475 376.741 588.393 377.951 590.87 379.618C592.541 380.743 594.064 382.407 594.386 384.463C595.031 388.581 591.512 392.881 589.404 396.107C585.307 394.119 581.33 392.019 577.384 389.747C578.083 383.998 579.047 380.127 582.765 375.504Z"/>
	<path fill="#FEFEFE" d="M515.568 737.812C561.918 738.962 597.117 728.452 637.508 706.509C638.309 707.479 639.788 708.695 639.752 709.946C638.518 709.353 637.473 707.585 636.253 707.71C636.103 708.733 635.965 709.751 635.861 710.78C634.613 711.309 633.463 711.087 632.156 710.958L631.556 711.481L631.797 712.737L630.832 713.708C629.827 713.651 629.607 713.583 628.757 713.15L628.14 713.73L629.049 714.456C627.507 715.846 622.988 715.241 622.25 716.702L623.1 717.77L622.293 718.099C621.402 717.585 620.647 717.161 619.688 716.776C616.004 719.339 612.124 721 608.081 722.904L608.059 722.426C606.803 724.702 606.371 724.836 603.751 725.555C602.947 725.776 602.102 725.893 601.276 726.011L600.697 724.676C600.005 725.321 599.412 725.971 598.792 726.682C595.171 727.928 590.977 727.616 587.788 729.831C586.117 730.992 565.238 736.515 562.274 736.929C553.911 738.099 521.221 740.238 514.42 739.127C514.16 736.815 514.754 734.519 514.449 732.267C514.063 729.407 512.093 725.211 511.023 722.487C511.135 721.789 511.214 721.067 511.387 720.382C514.414 725.815 514.917 731.761 515.568 737.812Z"/>
	<path fill="#FEFEFE" d="M289.926 402.923C291.648 402.947 292.57 404.029 293.916 405.055C294.415 406.265 294.6 407.262 294.153 408.521C293.302 410.922 291.334 412.72 290.22 414.948C289.465 416.457 290.564 417.113 290.112 418.392C289.171 421.057 287.513 422.528 286.873 425.512C286.236 428.481 284.713 431.099 283.846 433.985C281.809 440.762 280.329 447.909 278.569 454.778C276.39 463.284 273.733 470.749 273.609 479.703L272.829 479.726C271.285 482.066 274.735 488.754 272.564 491.159L271.827 491.073C271.059 494.997 272 500.07 272.006 504.134C272.016 510.828 271.389 517.8 271.805 524.464C271.951 526.821 273.712 529.019 273.795 531.287C273.827 532.171 273.159 533.185 272.761 533.923C272.933 537.444 274.077 541.07 274.725 544.547C275.805 550.338 276.615 556.06 278.111 561.777C279.095 565.533 281.017 570.163 281.282 573.944C281.336 574.71 281.085 575.318 280.82 576.016C277.299 565.456 274.988 554.423 273.244 543.442C265.653 495.647 274.144 449.621 293.385 405.601C292.132 404.784 290.927 404.056 289.926 402.923Z"/>
	<path fill="#FEFEFE" d="M684.772 468.508C686.342 468.345 687.935 468.202 689.497 468.533C692.021 469.069 694.455 470.662 695.839 472.852C697.07 474.8 697.345 477.134 696.766 479.345C695.894 482.678 693.684 484.321 690.825 485.962C689.528 486.151 688.038 486.263 686.735 486.067C684.494 485.731 682.149 484.041 680.833 482.245C679.348 480.218 678.788 477.625 679.323 475.168C680.018 471.984 682.21 470.256 684.772 468.508Z"/>
	<path fill="#FEFEFE" d="M324.237 405.676C327.508 409.641 330.393 413.069 334.74 415.878C324.721 418.499 316.24 420.673 305.827 420.468L310.45 409.21C315.562 408.794 319.606 407.915 324.237 405.676Z"/>
	<path fill="#FEFEFE" d="M615.367 244.777C619.311 245.377 623.151 247.816 626.882 249.265C666.987 264.841 705.025 298.47 732.49 331.197C734.88 334.046 737.765 336.614 739.989 339.565C742.306 342.639 743.541 346.346 742.895 350.214C742.315 353.686 740.856 357.985 737.715 359.95C735.172 361.541 732.621 361.549 729.743 361.39C730.755 361.209 731.78 361.026 732.767 360.736C735.841 359.832 738.642 357.606 740.173 354.786C741.877 351.649 741.9 347.954 740.851 344.601C738.479 337.021 729.619 329.108 724.271 323.332C701.377 298.606 675.604 276.972 646.154 260.412C636.102 254.76 625.543 250.161 615.367 244.777Z"/>
	<path fill="#FEFEFE" d="M648.401 449.978C648.827 450.003 649.301 450.184 649.715 450.295C654.209 455.899 656.792 464.48 657.323 471.557C654.278 472.656 651.163 473.602 648.083 474.6L646.893 474.77C644.634 471.995 640.907 458.748 639.088 454.482C642.084 452.823 645.304 451.448 648.401 449.978Z"/>
	<path fill="#FEFEFE" d="M504.96 491.48L505.417 482.745C505.688 493.387 504.54 504.551 505.544 515.1C504.807 517.688 504.867 520.418 504.764 523.093C502.322 523.497 499.784 524.321 497.601 522.885C496.427 520.547 496.83 516.056 496.451 513.248C497.079 505.826 496.567 498.023 496.527 490.558L497.023 491.137C499.478 491.897 502.406 491.527 504.96 491.48Z"/>
	<path fill="#FEFEFE" d="M685.244 562.679C687.298 562.48 689.36 562.152 691.343 562.888C694.212 563.953 696.66 566.082 697.87 568.925C698.795 571.101 698.95 573.523 697.969 575.707C696.849 578.201 694.667 579.894 692.198 580.914L691.936 580.97C690.772 581.227 689.54 581.555 688.34 581.477C685.608 581.298 682.677 579.806 680.997 577.644C679.34 575.512 678.718 572.792 679.221 570.147C679.928 566.43 682.236 564.666 685.244 562.679Z"/>
	<path fill="#FEFEFE" d="M692.217 501.48C694.216 501.376 696.149 501.598 697.994 502.408C700.48 503.498 702.447 505.549 703.396 508.098C704.34 510.634 704.214 513.435 703.061 515.878C701.583 519.011 699.228 520.276 696.122 521.463C694.104 521.603 692.108 521.631 690.19 520.886C687.712 519.924 685.642 517.937 684.631 515.474C683.611 512.987 683.652 510.21 684.708 507.747C686.212 504.24 688.776 502.739 692.217 501.48Z"/>
	<path fill="#FEFEFE" d="M489.557 337.298C490.452 344.977 490.123 352.958 490.121 360.684L490.087 396.783C483.749 399.675 478.019 402.777 472.226 406.686C472.497 402.795 473.124 398.572 472.479 394.719C472.886 376.241 472.35 357.719 472.591 339.233C473.766 345.972 473.094 353.607 473.032 360.438L472.967 389.279C478.281 386.684 483.568 384.57 489.351 383.293C489.394 368.101 488.496 352.428 489.557 337.298Z"/>
	<path fill="#FEFEFE" d="M652.461 530.113C658.131 530.166 663.819 530.309 669.488 530.247C668.213 542.666 666.233 557.584 660.34 568.726C659.608 562.434 666.185 552.576 666.089 544.849C663.802 546.738 653.364 548.171 650.023 548.469C648.537 553.064 645.951 564.795 641.849 567.175C647.045 555.098 650.575 543.158 652.461 530.113Z"/>
	<path fill="#FEFEFE" d="M466.978 266.669C474.173 264.976 481.681 263.61 489.023 262.754L489.131 277.873C483.103 278.267 477.534 280.749 471.602 281.321C471.306 281.35 471.017 281.429 470.725 281.482L466.316 281.079C465.808 276.438 466.523 271.312 466.978 266.669Z"/>
	<path fill="#FEFEFE" d="M328.137 527.341C335.034 530.748 342.054 534.092 349.706 535.374C350.833 541.518 351.542 547.865 353.743 553.742C348.073 553.146 337.511 547.414 332.376 544.335L331.809 543.988L331.104 545.432C330.054 539.41 329.058 533.385 328.137 527.341Z"/>
	<path fill="#FEFEFE" d="M402.283 509.199C412.678 530.383 425.638 549.356 443.629 564.844C442.521 564.547 442.039 564.167 440.942 564.595C441.805 566.443 443.659 567.448 444.155 569.482C443.487 570.597 443.915 570.134 442.882 570.883C440.885 569.574 438.929 568.207 437.026 566.765C418.916 553.042 405.395 531.889 402.283 509.199Z"/>
	<path fill="#FEFEFE" d="M677.047 329.67C684.614 335.704 706.384 356.138 710.661 364.076L709.407 364.266C708.272 362.673 707.142 360.565 705.334 359.711C704.061 359.999 703.801 360.078 703.105 361.314C702.297 362.746 701.59 366.813 702.058 368.338C702.249 368.956 702.724 369.615 703.078 370.155L703.341 371.557C699.333 368.252 695.71 363.902 692.004 360.204C686.763 354.975 681.279 350.026 676.191 344.64C677.988 344.78 678.851 346.058 680.036 347.279C680.947 344.821 684.848 339.457 684.894 337.864C684.108 337.377 683.587 336.998 682.979 336.289C681.027 334.012 677.773 332.662 677.047 329.67Z"/>
	<path fill="#FEFEFE" d="M424.757 280.171C437.023 274.266 453.686 269.674 466.978 266.669C466.523 271.312 465.808 276.438 466.316 281.079L470.725 281.482C462.831 283.728 455.096 285.902 447.333 288.601C441.337 290.686 435.377 293.265 429.325 295.121C429.378 295.056 429.435 294.993 429.486 294.925C431.527 292.206 441.34 289.355 445.067 287.887C445.746 283.8 444.75 278.417 444.755 274.163C440.146 275.388 428.599 280.943 424.757 280.171Z"/>
	<path fill="#FEFEFE" d="M604.935 566.827C611.974 558.901 618.769 548.943 623.961 539.719C625.637 536.741 626.039 533.225 627.891 530.289C630.456 526.221 631.626 521.259 633.527 516.836L634.014 517.256C636.109 533.042 631.169 550.293 623.82 564.082C623.767 563.866 623.706 563.653 623.662 563.436C623.496 562.616 623.545 562.125 623.688 561.321C617.234 562.54 611.801 566.871 604.935 566.827Z"/>
	<path fill="#FEFEFE" d="M384.671 528.45C385.838 536.75 388.95 545.738 392.979 553.099C394.168 555.272 395.726 557.235 396.91 559.387C391.391 558.151 375.536 550.106 371.122 551.524C369.798 547.244 366.516 539.617 368.057 535.301C369.064 534.085 380.977 530.54 384.671 528.45Z"/>
	<path fill="#FEFEFE" d="M551.603 265.018C565.52 268.06 590.209 274.916 602.112 282.22C598.82 282.679 586.914 276.756 583.248 275.123C583.278 278.784 583.985 283.65 581.643 286.675C580.748 286.991 580.111 287.124 579.161 287.118C570.189 284.019 561.119 281.858 551.884 279.718C552.158 279.539 552.455 279.391 552.705 279.181C555.018 277.246 551.818 268.761 551.636 265.705C551.623 265.476 551.614 265.247 551.603 265.018Z"/>
	<path fill="#FEFEFE" d="M412.694 380.606C415.322 380.179 417.677 380.316 420.224 381.155C423.851 382.351 426.854 384.909 428.431 388.415C429.862 391.596 429.934 395.279 428.663 398.522C427.021 402.711 423.856 405.205 419.878 407.033C417.088 407.525 414.785 407.804 412.046 406.911C408.402 405.724 405.427 403.138 403.811 399.65C402.221 396.219 402.076 392.3 403.525 388.794C405.317 384.457 408.52 382.316 412.694 380.606Z"/>
	<path fill="#FEFEFE" d="M390.557 648.509C388.78 645.025 387.791 641.382 388.993 637.508C390.109 633.909 392.906 630.938 396.214 629.216C399.7 627.402 403.53 627.234 407.202 628.593C410.608 629.852 413.477 632.213 415.012 635.543C416.555 638.888 416.933 643.187 415.591 646.656C414.226 650.184 411.522 652.791 408.17 654.437C405.273 653.151 401.459 653.577 398.368 652.563C395.891 651.75 393.945 649.82 391.511 648.866C391.195 648.742 390.875 648.628 390.557 648.509Z"/>
	<path fill="#FEFEFE" d="M374.548 408.024C377.519 407.924 380.39 407.797 383.221 408.852C387.657 410.505 391.345 413.776 393.136 418.2C394.617 421.858 394.65 426.219 393.087 429.856C391.037 434.63 387.288 437.187 382.703 439.153C379.522 439.696 376.687 439.673 373.594 438.647C369.542 437.303 366.2 434.277 364.425 430.395C362.609 426.425 362.445 421.822 364.088 417.766C366.111 412.771 369.825 410.138 374.548 408.024Z"/>
	<path fill="#FEFEFE" d="M542.241 323.359C547.652 328.509 555.033 332.687 559.56 338.57L559.403 368.146C558.35 369.806 558.799 373.924 558.804 375.982C553.396 375.979 548.069 375.787 542.675 375.403C542.691 373.932 543.122 370.759 542.068 369.645C541.548 354.408 541.552 338.584 542.241 323.359Z"/>
	<path fill="#FEFEFE" d="M474.527 335.38C479.436 331.765 484.31 327.861 489.513 324.687C489.545 328.846 489.824 333.156 489.557 337.298C488.496 352.428 489.394 368.101 489.351 383.293C483.568 384.57 478.281 386.684 472.967 389.279L473.032 360.438C473.094 353.607 473.766 345.972 472.591 339.233C472.649 337.533 473.528 336.66 474.527 335.38Z"/>
	<path fill="#FEFEFE" d="M737.637 378.226C739.393 378.465 740.228 379.719 741.278 381.09C748.205 390.135 754.167 400.647 759.273 410.826C780.741 453.631 787.501 501.291 780.768 548.595C770.936 617.665 735.097 677.788 679.185 719.625C645.626 744.737 607.503 762.058 565.991 768.955C562.46 769.542 558.857 769.768 555.309 770.269C546.01 771.582 537.189 773.456 527.733 773.281C519.397 773.263 511.072 773.213 502.74 773.467C499.438 773.568 497.412 775.369 494.417 776.388C488.966 778.244 481.143 779.069 475.368 778.39C460.634 776.656 458.29 769.651 446.984 763.912C439.924 760.329 432.016 758.03 424.778 754.66C399.487 742.886 376.122 729.456 354.447 711.802C349.543 707.808 343.98 703.498 340.07 698.533L340.474 698.817C345.595 702.483 350.242 707.037 355.107 711.059C362.04 716.791 369.354 722.122 376.833 727.117C391.067 736.625 406.551 745.076 422.233 751.92C430.903 755.704 440.132 758.743 448.635 762.801C453.093 764.929 456.351 768.44 460.323 771.254C467.241 776.154 478.365 778.04 486.674 776.654C491.741 775.81 495.969 773.184 500.815 771.791C507.051 770 515.229 771.385 521.719 771.578C590.076 770.783 655.659 744.419 704.59 696.413C754.549 647.4 781.651 584.877 782.134 514.818C782.419 473.483 772.275 432.456 750.73 397.003C746.909 390.717 742.809 383.461 737.637 378.226Z"/>
	<path fill="#FEFEFE" d="M293.035 380.988C291.393 376.784 291.138 371.57 293.042 367.417C295.016 363.113 299.079 359.717 303.516 358.167C307.999 356.602 312.808 357.096 317.033 359.188C321.266 361.284 324.598 364.786 325.957 369.356C327.317 373.926 326.513 378.275 324.799 382.593C322.881 385.158 321.039 387.384 318.271 389.111C314.406 391.523 309.844 392.444 305.393 391.301C299.63 389.821 296.052 385.826 293.035 380.988Z"/>
	<path fill="#FEFEFE" d="M476.851 717.552C480.607 717.064 484.012 717.402 487.482 719.005C491.87 721.033 495.436 724.922 497.036 729.486C498.626 734.021 498.25 739.027 496.038 743.289C493.466 748.244 489.317 750.96 484.133 752.628C480.138 753.246 476.624 752.945 472.945 751.168C468.57 749.054 465.136 745.047 463.587 740.458C462.075 735.979 462.264 731.103 464.527 726.907C467.189 721.971 471.652 719.173 476.851 717.552Z"/>
	<path fill="#FEFEFE" d="M376.168 512.367C373.207 515.231 366.904 516.614 362.876 517.113C344.078 519.443 329.259 509.59 315.097 498.631C313.031 497.033 310.215 495.512 309.866 492.748C310.684 491.799 310.863 491.696 312.051 491.289C314.92 493.121 319.932 492.62 323.243 492.557C332.941 492.375 353.357 490.554 361.895 492.84C367.697 494.393 373.605 499.032 374.961 505.109C375.386 507.011 375.565 508.907 375.764 510.841C375.861 511.785 375.794 511.417 376.168 512.367Z"/>
	<path fill="#FEFEFE" d="M432.859 449.89C433.147 452.35 429.737 464.736 429.501 469.697C428.786 484.729 432.491 500.767 442.909 512.082C461.942 532.753 509.526 536.416 536.583 537.415C533.23 537.902 529.91 538.546 526.583 539.178C501.451 543.903 470.259 541.726 447.74 528.868C436.42 522.404 428.663 512.5 425.246 499.902C420.767 483.394 424.538 464.611 432.859 449.89Z"/>
	<path fill="#FEFEFE" d="M402.283 509.199C398.64 486.272 398.677 467.606 408.455 445.95C417.068 426.877 439.452 404.056 459.076 396.68C446.921 406.059 435.905 416.421 427.724 429.51C416.117 444.271 409.211 469.783 410.385 488.362C410.328 496.055 411.1 504.922 414.152 512.062C418.784 527.476 426.632 541.572 436.569 554.191C438.088 556.119 439.673 558.512 441.529 560.1C443.085 562.732 445.356 564.802 447.484 566.974C446.148 566.323 444.843 565.711 443.629 564.844C425.638 549.356 412.678 530.383 402.283 509.199Z"/>
	<path fill="#FEFEFE" d="M334.74 415.878C333.811 418.227 332.841 420.428 331.621 422.646C325.705 432.447 321.503 443.325 318.294 454.298C317.045 458.57 316.169 463.042 314.71 467.237C305.599 473.026 297.091 480.422 288.978 487.533C288.298 486.904 288.46 486.883 288.365 486.015C289.96 478.965 290.752 471.671 292.279 464.573C295.553 449.363 300.283 435 305.827 420.468C316.24 420.673 324.721 418.499 334.74 415.878Z"/>
	<path fill="#FEFEFE" d="M583.248 275.123C586.914 276.756 598.82 282.679 602.112 282.22C623.321 290.364 649.769 308.118 667.917 322.221C670.958 324.584 674.386 326.885 677.047 329.67C677.773 332.662 681.027 334.012 682.979 336.289C683.587 336.998 684.108 337.377 684.894 337.864C684.848 339.457 680.947 344.821 680.036 347.279C678.851 346.058 677.988 344.78 676.191 344.64C672.782 342.623 669.911 339.646 666.862 337.134C661.255 332.515 655.515 327.997 649.731 323.601C628.884 307.755 603.875 295.554 579.161 287.118C580.111 287.124 580.748 286.991 581.643 286.675C583.985 283.65 583.278 278.784 583.248 275.123Z"/>
	<path fill="#FEFEFE" d="M312.051 491.289C325.843 479.175 341.899 463.848 361.721 465.059C369.569 465.538 377.339 469.214 382.437 475.242C386.649 480.222 388.85 486.565 388.172 493.093C387.299 501.486 382.421 507.314 376.168 512.367C375.794 511.417 375.861 511.785 375.764 510.841C375.565 508.907 375.386 507.011 374.961 505.109C373.605 499.032 367.697 494.393 361.895 492.84C353.357 490.554 332.941 492.375 323.243 492.557C319.932 492.62 314.92 493.121 312.051 491.289Z"/>
	<path fill="#FEFEFE" d="M449.471 541.879C471.163 558.572 507.516 560.9 533.805 557.488C549.857 555.405 568.076 550.356 581.074 540.293C576.255 549.839 569.161 558.025 560.337 564.037C551.509 570.483 541.92 574.744 531.235 577.087C508.514 582.067 488.605 575.267 469.528 563.156C461.5 556.71 455.054 550.62 449.471 541.879Z"/>
	<path fill="#FEFEFE" d="M542.683 293.767C569.79 296.327 612.409 316.204 634.82 331.483C638.596 334.057 643.134 337.66 643.841 342.473C644.258 345.304 643.307 347.367 641.678 349.599C638.752 351.759 635.608 352.772 632.004 351.807C627.057 350.483 622.466 346.539 618.095 343.917C602.564 334.6 583.03 322.875 564.751 321.264C562.092 314.758 556.287 311.311 550.437 308.033L548.282 308.236C546.616 308.41 545.467 308.674 543.868 307.956C541.725 305.458 543.073 297.753 542.683 293.767Z"/>
	<path fill="#FEFEFE" d="M486.239 293.558C486.984 293.487 487.607 293.556 488.348 293.634C490.266 296.957 489.183 304.066 489.014 307.915C486.832 307.96 484.591 308.043 482.455 308.519C476.061 309.943 471.071 314.91 467.518 320.163C430.07 328.407 394.88 352.312 369.697 380.811C362.91 388.492 357.03 396.854 351.066 405.173L346.01 400.223C343.208 397.646 340.528 394.921 337.81 392.254C340.038 388.181 342.173 383.978 344.686 380.073C350.116 371.636 357.128 364.365 364.228 357.332C397.686 324.185 440.529 303.488 486.239 293.558Z"/>
	<path fill="#FEFEFE" d="M516.074 196.65C518.745 206.273 521.783 215.823 524.745 225.361C525.49 227.892 526.409 230.541 526.643 233.178C527.156 238.957 526.598 244.95 526.528 250.753C526.413 260.36 526.473 269.975 526.491 279.583L526.518 381.727C519.74 382.695 511.517 384.273 505.611 387.885C505.661 383.564 505.78 379.24 505.444 374.928C504.978 363.585 505.34 352.066 505.339 340.7L505.439 272.611C505.447 264.163 505.527 255.689 505.305 247.245C505.183 242.601 504.345 237.578 505.05 232.988C505.737 228.514 507.592 223.9 508.949 219.58L516.074 196.65Z"/>
	<path fill="#FEFEFE" d="M537.088 224.909C564.331 226.873 589.912 235.574 615.367 244.777C625.543 250.161 636.102 254.76 646.154 260.412C675.604 276.972 701.377 298.606 724.271 323.332C729.619 329.108 738.479 337.021 740.851 344.601C741.9 347.954 741.877 351.649 740.173 354.786C738.642 357.606 735.841 359.832 732.767 360.736C731.78 361.026 730.755 361.209 729.743 361.39C727.257 361.676 723.98 360.761 721.98 359.272C717.677 356.067 716.951 350.927 716.225 346.004C711.742 340.65 706.668 335.665 701.783 330.676C671.281 299.532 637.44 277.742 597.161 261.388C586.387 256.599 573.878 253.341 562.347 250.826C557.751 249.824 546.002 248.657 542.662 246.942C543.529 238.378 539.791 232.78 537.088 224.909Z"/>
	<path fill="#FEFEFE" d="M371.122 551.524C375.536 550.106 391.391 558.151 396.91 559.387C405.335 568.148 414.76 573.311 426.478 576.571C429.746 577.48 433.52 577.854 436.62 579.182C441.806 581.404 446.127 586.406 451.028 589.361C468.468 599.876 491.605 605.996 511.76 606.447C533.607 606.936 557.559 601.922 576.298 590.166C582.206 586.46 587.543 581.246 593.517 577.843C597.407 574.266 601.148 570.513 604.935 566.827C611.801 566.871 617.234 562.54 623.688 561.321C623.545 562.125 623.496 562.616 623.662 563.436C623.706 563.653 623.767 563.866 623.82 564.082C623.517 564.745 623.255 565.547 622.798 566.113C622.665 566.425 622.544 566.742 622.398 567.048C620.236 571.587 616.616 576.165 613.521 580.12C598.537 599.265 578.611 613.063 555.5 620.596C520.054 632.149 479.511 627.557 447.121 609.198C443.02 606.874 438.921 604.39 435.106 601.618C430.542 598.302 425.917 593.981 420.79 591.63C418.051 590.374 414.432 590.943 411.672 591.921C406.758 593.662 403.466 596.901 401.192 601.497C387.2 586.835 377.568 570.737 371.122 551.524Z"/>
	<path fill="#FEFEFE" d="M604.935 566.827C611.801 566.871 617.234 562.54 623.688 561.321C623.545 562.125 623.496 562.616 623.662 563.436C623.706 563.653 623.767 563.866 623.82 564.082C623.517 564.745 623.255 565.547 622.798 566.113C622.504 566.041 622.216 565.864 621.915 565.896C619.647 566.13 599.598 576.347 593.517 577.843C597.407 574.266 601.148 570.513 604.935 566.827Z"/>
	<path fill="#FEFEFE" d="M650.023 548.469C653.364 548.171 663.802 546.738 666.089 544.849C666.185 552.576 659.608 562.434 660.34 568.726C659.977 572.478 656.771 578.451 655.11 581.848C638.055 616.732 605.677 643.576 569.223 656.132C534.545 668.076 495.533 668.034 460.855 655.957C451.044 652.54 441.837 647.856 432.522 643.306C432.375 625.574 421.809 622.162 421.01 616.935L421.844 616.571C427.964 617.949 434.276 622.902 439.909 625.825C476.752 644.946 519.691 650.654 559.665 637.984C597.537 625.979 623.786 602.046 641.849 567.175C645.951 564.795 648.537 553.064 650.023 548.469Z"/>
	<path fill="#FEFEFE" d="M649.793 368.93C653.131 363.178 657.87 358.713 662.604 354.133C667.228 357.696 671.507 361.897 675.741 365.913C699.163 388.131 718.45 414.934 730.363 445.043C750.816 496.734 749.736 555.448 727.579 606.456C712.728 638.024 697.235 660.125 670.888 683.339C667.048 686.723 661.991 692.239 657.239 693.991C653.554 688.88 648.987 684.423 645.28 679.287C649.363 675.962 653.49 672.689 657.439 669.204C695.507 635.606 719.198 590.863 722.359 539.876C725.645 486.888 711.735 440.799 678.132 399.535C673.297 393.597 668.293 387.775 662.931 382.305C658.718 378.007 654.186 373.962 650.224 369.43L649.793 368.93Z"/>
	<path fill="#FEFEFE" d="M455.961 488.734C455.972 490.633 456.618 501.013 455.981 501.716C455.836 501.877 455.617 501.953 455.435 502.071L455.93 503.239C455.483 503.055 455.702 503.212 455.417 502.517C454.545 500.389 454.298 497.554 453.896 495.275C451.139 479.652 452.364 462.507 458.89 447.903C468.248 426.961 487.269 410.776 508.523 402.704C529.019 394.92 553.251 397.525 572.849 406.607C593.288 416.079 610.442 433.443 618.12 454.797C626.635 478.474 625.668 504.999 614.806 527.787C608.597 540.813 598.419 552.563 586.802 561.101C594.08 549.892 606.942 531.807 604.017 517.453C603.754 516.164 603.305 514.951 602.79 513.745C605.933 506.955 609.076 500.44 610.594 493.056C610.395 488.495 611.277 476.323 610.414 472.542L609.911 472.604C607.619 475.571 606.406 480.262 604.933 483.754C605.417 484.708 605.803 485.639 606.16 486.648L605.515 487.526C604.588 487.822 603.859 488.032 602.873 488.059C602.629 488.065 602.384 488.054 602.139 488.051C597.975 497.57 591.878 505.274 584.671 512.663C584.819 510.487 585.037 508.293 585.079 506.114C584.534 500.649 584.822 495.226 584.59 489.758C584.474 487.023 584.078 484.333 583.997 481.581C578.692 480.294 572.514 480.072 567.053 479.938L568.693 477.953C567.126 477.956 565.604 477.614 564.299 478.522C564.132 479.486 564.051 480.33 564.083 481.308C563.112 490.764 563.816 501.042 563.758 510.589C561.121 510.678 558.435 511.326 555.816 510.965C555.328 493.812 556.417 476.424 555.423 459.34C555.445 450.238 555.329 441.109 555.7 432.014L530.964 431.964L531.208 471.866L531.022 490.882L531.319 493.168C531.239 493.3 531.193 493.46 531.078 493.562C530.274 494.275 529.434 494.309 528.418 494.358C526.354 494.459 525.175 493.893 523.718 492.497C524.057 490.7 523.979 488.846 524.01 487.02C524.103 481.509 524.325 476 524.519 470.491L505.422 470.483C505.484 474.57 505.44 478.658 505.417 482.745L504.96 491.48C502.406 491.527 499.478 491.897 497.023 491.137L496.527 490.558C496.737 472.06 496.258 453.513 496.997 435.029L476.489 435.145C464.9 452.665 457.791 467.393 455.961 488.734Z"/>
	<path fill="#FEFEFE" d="M524.01 487.02C524.305 488.622 524.263 489.515 525.355 490.754C527.159 491.333 529.157 491.005 531.022 490.882L531.319 493.168C531.239 493.3 531.193 493.46 531.078 493.562C530.274 494.275 529.434 494.309 528.418 494.358C526.354 494.459 525.175 493.893 523.718 492.497C524.057 490.7 523.979 488.846 524.01 487.02Z"/>
	<path fill="#FEFEFE" d="M608.84 461.645C611.005 472.369 612.493 482.138 610.594 493.056C610.395 488.495 611.277 476.323 610.414 472.542L609.911 472.604C607.619 475.571 606.406 480.262 604.933 483.754C605.417 484.708 605.803 485.639 606.16 486.648L605.515 487.526C604.588 487.822 603.859 488.032 602.873 488.059C602.629 488.065 602.384 488.054 602.139 488.051C605.694 479.208 607.674 471.098 608.84 461.645Z"/>
	<path fill="#FEFEFE" d="M568.693 477.953C574.335 477.902 580.015 477.709 585.652 477.935C585.461 487.271 585.789 496.816 585.079 506.114C584.534 500.649 584.822 495.226 584.59 489.758C584.474 487.023 584.078 484.333 583.997 481.581C578.692 480.294 572.514 480.072 567.053 479.938L568.693 477.953Z"/>
	<path fill="#FEFEFE" d="M288.096 500.612C296.254 506.475 304.096 512.978 311.986 519.204L311.987 520.727C312.243 559.81 327.522 599.287 351.961 629.6C356.928 635.76 362.454 641.267 368.065 646.829C368.183 639.291 368.978 633.824 372.049 626.878C349.935 598.857 339.341 581.052 331.104 545.432L331.809 543.988L332.376 544.335C337.511 547.414 348.073 553.146 353.743 553.742C360.183 576.896 373.123 598.377 389.317 616.042C381.605 621.112 376.123 628.211 374.34 637.405C373.727 640.56 373.692 644.255 374.223 647.423C375.766 655.44 380.313 662.116 387.065 666.676C393.352 670.923 401.053 672.617 408.505 671.113C415.712 669.658 422.655 665.088 426.903 659.074C467.766 682.86 518.828 687.879 564.215 675.907C592.131 668.543 618.699 654.038 639.333 633.756C643.668 629.495 653.692 617.132 657.33 614.81C661.218 612.328 665.616 612.03 669.69 614.294C671.695 615.409 673.404 617.093 674.071 619.339C674.786 621.74 674.197 624.017 672.981 626.135C670.04 631.257 664.568 635.983 660.483 640.308C634.493 667.822 602.433 686.945 565.722 696.244C545.077 701.474 525.315 702.128 504.161 702.073C510.542 707.292 514.32 713.04 518.438 720.068L519.04 719.978C527.983 718.731 537.241 718.966 546.281 717.909C575.409 714.504 602.312 704.996 627.762 690.629C631.931 694.887 636.413 699.436 639.807 704.342C639.518 705.508 638.478 705.851 637.508 706.509C597.117 728.452 561.918 738.962 515.568 737.812C514.917 731.761 514.414 725.815 511.387 720.382C506.374 711.494 499.034 704.354 488.997 701.519C480.552 699.133 470.971 700.54 463.388 704.885C455.662 709.312 451.001 716.283 447.215 724.139L440.478 721.867C440.306 721.371 440.219 721.309 440.28 720.786C440.796 716.295 446.094 710.353 449.53 707.906C455.308 702.459 459.683 698.952 467.365 696.373C460.616 694.986 454.046 692.429 447.551 690.172C440.905 687.333 427.645 679.971 420.366 683.16C419.089 683.72 418.193 684.56 417.73 685.884C417.088 687.72 417.097 689.593 417.988 691.343C418.399 692.15 419.192 693.106 419.931 693.605C421.508 695.138 422.738 696.471 422.957 698.776C423.339 702.782 419.152 706.812 416.683 709.601C395.556 701.026 371.447 682.336 355.428 666.066C310.478 620.412 287.506 564.625 288.096 500.612Z"/>
	<path fill="#FEFEFE" d="M275.51 397.177C272.699 392.451 270.503 387.686 269.46 382.251C267.386 371.438 269.941 359.607 276.235 350.574C282.779 341.184 289.153 340.645 294.257 334.727C298.936 329.301 302.818 323.309 307.738 318.031C349.636 273.08 399.775 243.046 459.931 229.866C471.587 227.312 483.394 226.328 495.121 224.32C492.845 233.088 489.04 237.751 488.586 247.398C479.3 248.021 469.718 250.068 460.629 252.028C405.384 263.94 358.258 293.176 320.976 335.213C325.97 337.045 330.164 339.296 334.53 342.344C348.348 323.389 402.217 285.612 424.757 280.171C428.599 280.943 440.146 275.388 444.755 274.163C444.75 278.417 445.746 283.8 445.067 287.887C441.34 289.355 431.527 292.206 429.486 294.925C429.435 294.993 429.378 295.056 429.325 295.121C394.937 310.634 364.514 331.235 340.035 360.267C336.465 352.126 329.825 345.781 321.519 342.588C313.171 339.379 303.323 339.626 295.178 343.306C287.003 346.999 280.639 353.764 277.474 362.164C274.25 370.722 274.392 380.507 278.271 388.828C280.748 394.141 284.889 399.814 289.926 402.923C290.927 404.056 292.132 404.784 293.385 405.601C274.144 449.621 265.653 495.647 273.244 543.442C274.988 554.423 277.299 565.456 280.82 576.016C285.197 587.583 288.744 599.197 294.182 610.371C319.948 663.317 364.589 706.13 418.171 730.271C427.135 734.309 436.425 737.574 445.756 740.646C449.67 752.131 454.673 760.947 465.983 766.542C473.671 770.344 482.495 771.079 490.638 768.308C498.632 765.588 504.327 760.398 509.602 754C520.981 754.35 532.424 754.798 543.8 754.178C580.145 752.197 615.096 740.584 646.516 722.493C654.585 716.669 663.277 711.768 671.267 705.737C695.603 687.368 715.68 664.19 731.325 638.124C735.17 631.718 738.09 624.841 741.896 618.441L742.205 617.929C744.328 611.863 747.246 606.069 749.402 599.988C755.713 582.198 759.431 563.562 761.09 544.777C765.541 494.388 754.616 443.359 726.628 400.89C720.482 391.564 713.232 383.106 706.079 374.555C704.929 373.778 704.195 372.64 703.341 371.557L703.078 370.155C702.724 369.615 702.249 368.956 702.058 368.338C701.59 366.813 702.297 362.746 703.105 361.314C703.801 360.078 704.061 359.999 705.334 359.711C707.142 360.565 708.272 362.673 709.407 364.266L710.661 364.076C718.311 372.441 725.98 377.678 737.637 378.226C742.809 383.461 746.909 390.717 750.73 397.003C772.275 432.456 782.419 473.483 782.134 514.818C781.651 584.877 754.549 647.4 704.59 696.413C655.659 744.419 590.076 770.783 521.719 771.578C515.229 771.385 507.051 770 500.815 771.791C495.969 773.184 491.741 775.81 486.674 776.654C478.365 778.04 467.241 776.154 460.323 771.254C456.351 768.44 453.093 764.929 448.635 762.801C440.132 758.743 430.903 755.704 422.233 751.92C406.551 745.076 391.067 736.625 376.833 727.117C369.354 722.122 362.04 716.791 355.107 711.059C350.242 707.037 345.595 702.483 340.474 698.817L340.07 698.533C337.94 695.13 333.245 691.591 330.352 688.738C326.279 684.722 322.413 680.587 318.66 676.273C296.971 651.347 279.498 623.153 268.063 592.09C249.05 540.443 246.363 482.257 262.706 429.513C266.142 418.423 270.653 407.711 275.51 397.177Z"/>
	<path fill="#FEFEFE" d="M703.078 370.155L704.28 368.55L705.37 368.485C706.18 369.409 706.453 370.497 706.369 371.723C706.334 372.237 706.148 372.735 706.122 373.251C706.106 373.585 706.185 373.919 706.174 374.254C706.17 374.359 706.11 374.455 706.079 374.555C704.929 373.778 704.195 372.64 703.341 371.557L703.078 370.155Z"/>
	<path fill="#FEFEFE" d="M646.516 722.493C654.585 716.669 663.277 711.768 671.267 705.737C695.603 687.368 715.68 664.19 731.325 638.124C735.17 631.718 738.09 624.841 741.896 618.441L742.205 617.929C742.953 629.497 717.652 664.18 709.028 673.997C694.882 690.1 679.584 703.202 662.089 715.509C658.744 717.863 652.675 722.779 648.569 722.792C647.922 722.794 647.156 722.612 646.516 722.493Z"/>
</svg>
